<?xml version="1.0" encoding="utf-8"?>
<!-- Generator: Adobe Illustrator 19.2.0, SVG Export Plug-In . SVG Version: 6.00 Build 0)  -->
<svg version="1.1" id="Layer_1" xmlns="http://www.w3.org/2000/svg" xmlns:xlink="http://www.w3.org/1999/xlink" x="0px" y="0px"
	 viewBox="0 0 1035.5 242" style="enable-background:new 0 0 1035.5 242;" xml:space="preserve">
<style type="text/css">
	.st0{fill:#FFFFFF;}
	.st1{fill:#ECEFF1;}
	.st2{fill:#FF5722;}
	.st3{opacity:0.54;fill:none;stroke:#000000;stroke-width:2;stroke-miterlimit:10;}
	.st4{fill:none;stroke:#FB8C00;stroke-width:4;stroke-miterlimit:10;}
	.st5{fill:none;stroke:#EF6C00;stroke-width:2;stroke-miterlimit:10;}
	.st6{fill:none;stroke:#000000;stroke-width:10;stroke-miterlimit:10;}
	.st7{fill:none;stroke:#000000;stroke-width:5;stroke-miterlimit:10;}
	.st8{opacity:0.54;}
	.st9{fill:none;stroke:#000000;stroke-width:2;stroke-miterlimit:10;}
	.st10{fill:none;stroke:#FB8C00;stroke-width:2;stroke-miterlimit:10;}
	.st11{fill:#FB8C00;}
	.st12{fill:#263238;}
	.st13{fill:none;stroke:#000000;stroke-miterlimit:10;}
	.st14{clip-path:url(#SVGID_2_);}
	.st15{fill:#37474F;}
	.st16{fill:#546E7A;}
	.st17{fill:#FFFFFF;stroke:#B0BEC5;stroke-miterlimit:10;}
	.st18{fill:none;stroke:#000000;stroke-width:4;stroke-linecap:round;stroke-linejoin:round;stroke-miterlimit:10;}
	.st19{fill:none;stroke:#000000;stroke-width:4;stroke-miterlimit:10;}
	.st20{fill:none;stroke:#000000;stroke-width:3;stroke-miterlimit:10;}
	.st21{opacity:0.12;}
	.st22{clip-path:url(#SVGID_4_);}
</style>
<g>
	<defs>
		<rect id="SVGID_3_" width="1035.5" height="242"/>
	</defs>
	<clipPath id="SVGID_2_">
		<use xlink:href="#SVGID_3_"  style="overflow:visible;"/>
	</clipPath>
	<g class="st14">
		<g>
			<path class="st15" d="M123.2,136.6h22V97h29.1v39.6h26.3v21.7h-26.3v70.5c0,3.1,0.1,5.7,0.4,7.9c0.3,2.2,0.9,4.1,1.8,5.6
				c0.9,1.5,2.3,2.7,4.2,3.4c1.9,0.8,4.4,1.1,7.7,1.1c2,0,4.1,0,6.1-0.1c2-0.1,4.1-0.4,6.1-0.9v22.5c-3.2,0.3-6.4,0.7-9.5,1
				c-3.1,0.3-6.2,0.5-9.5,0.5c-7.7,0-13.8-0.7-18.5-2.2c-4.7-1.4-8.3-3.6-11-6.4c-2.6-2.8-4.4-6.3-5.4-10.6
				c-0.9-4.3-1.5-9.1-1.7-14.6v-77.9h-22V136.6z"/>
			<path class="st15" d="M244.3,207.9c0,5.1,0.7,10.1,2.2,14.8c1.4,4.8,3.6,8.9,6.5,12.5c2.9,3.6,6.6,6.4,11,8.6
				c4.4,2.1,9.7,3.2,15.8,3.2c8.5,0,15.4-1.8,20.6-5.5c5.2-3.7,9.1-9.2,11.6-16.5h27.6c-1.5,7.2-4.2,13.5-7.9,19.2
				c-3.7,5.6-8.3,10.3-13.5,14.2c-5.3,3.8-11.2,6.7-17.8,8.7c-6.6,2-13.4,2.9-20.6,2.9c-10.4,0-19.6-1.7-27.6-5.1
				c-8-3.4-14.8-8.2-20.3-14.3c-5.5-6.1-9.7-13.5-12.5-22c-2.8-8.5-4.2-17.9-4.2-28.1c0-9.4,1.5-18.3,4.5-26.7
				c3-8.4,7.2-15.8,12.8-22.2c5.5-6.4,12.2-11.5,20.1-15.2c7.8-3.7,16.7-5.6,26.6-5.6c10.4,0,19.7,2.2,28,6.5
				c8.3,4.3,15.1,10.1,20.6,17.2c5.4,7.2,9.4,15.4,11.9,24.7c2.5,9.3,3.1,18.9,1.9,28.7H244.3z M312.3,188.7
				c-0.3-4.6-1.3-9-2.9-13.3c-1.6-4.3-3.8-8-6.6-11.1c-2.8-3.1-6.2-5.7-10.2-7.7c-4-2-8.5-2.9-13.4-2.9c-5.1,0-9.8,0.9-13.9,2.7
				c-4.2,1.8-7.8,4.3-10.7,7.4c-3,3.2-5.4,6.9-7.2,11.1c-1.8,4.3-2.8,8.9-2.9,13.8H312.3z"/>
			<path class="st15" d="M708,270c-10.6,0-20-1.7-28.2-5.2c-8.3-3.5-15.2-8.3-20.9-14.4c-5.7-6.1-10.1-13.5-13-22
				c-3-8.5-4.5-17.9-4.5-28.1c0-10,1.5-19.3,4.5-27.8c3-8.5,7.3-15.8,13-22c5.7-6.1,12.7-10.9,20.9-14.4c8.3-3.5,17.7-5.2,28.2-5.2
				c10.6,0,20,1.7,28.2,5.2c8.3,3.5,15.2,8.3,20.9,14.4c5.7,6.1,10,13.5,13,22c3,8.5,4.5,17.8,4.5,27.8c0,10.2-1.5,19.6-4.5,28.1
				c-3,8.5-7.3,15.8-13,22c-5.7,6.1-12.7,10.9-20.9,14.4C727.9,268.2,718.5,270,708,270z M708,247c6.5,0,12.1-1.4,16.9-4.1
				c4.8-2.7,8.7-6.3,11.8-10.7c3.1-4.4,5.3-9.4,6.8-14.9c1.4-5.5,2.2-11.2,2.2-17c0-5.6-0.7-11.2-2.2-16.9s-3.7-10.6-6.8-14.9
				s-7-7.9-11.8-10.6c-4.8-2.7-10.4-4.1-16.9-4.1c-6.5,0-12.1,1.4-16.9,4.1c-4.8,2.7-8.7,6.3-11.8,10.6s-5.3,9.3-6.8,14.9
				c-1.5,5.6-2.2,11.2-2.2,16.9c0,5.8,0.7,11.5,2.2,17c1.4,5.5,3.7,10.5,6.8,14.9c3.1,4.4,7,8,11.8,10.7
				C695.9,245.6,701.5,247,708,247z"/>
			<path class="st15" d="M785.9,137.9h31.7L851,239.3h0.5l32.2-101.4h30.1L866.6,270h-32.7L785.9,137.9z"/>
			<polygon class="st15" points="431.2,187 481.8,139 446,139 394.8,192.2 394.8,88.6 364.8,119.2 364.8,270 394.8,270 394.8,223.6 
				411.5,206.3 451.2,270 486.7,270 			"/>
			<path class="st15" d="M604.2,146.5c-8.3-7.5-19.8-11.2-34.2-11.2c-8.7,0-16.6,2.1-23.8,6.3c-7.2,4.2-13.2,9.9-17.6,17.2l-0.8-0.5
				v-19.4l-27,29V270h30V193c0-4.8,0.3-9.3,1.8-13.5c1.5-4.3,3.4-8,6.2-11.1c2.7-3.1,5.9-5.6,9.8-7.4c3.9-1.8,8.3-2.7,13.2-2.7
				c8.7,0,14.1,2.3,18.2,7c4.1,4.7,5.7,12.2,5.7,22.6V270h31v-89.9C616.8,165.2,612.5,154,604.2,146.5z"/>
		</g>
		<polygon class="st15" points="649.2,10 630.4,30 1001.8,30 1001.8,328 34.8,328 34.8,30 585.9,30 604.7,10 13.8,10 13.8,348 
			1021.8,348 1021.8,10 		"/>
	</g>
</g>
</svg>
