<?xml version="1.0" encoding="utf-8"?>
<!-- Generator: Adobe Illustrator 19.2.0, SVG Export Plug-In . SVG Version: 6.00 Build 0)  -->
<svg version="1.1" id="Layer_1" xmlns="http://www.w3.org/2000/svg" xmlns:xlink="http://www.w3.org/1999/xlink" x="0px" y="0px"
	 viewBox="0 0 120 40" style="enable-background:new 0 0 120 40;" xml:space="preserve">
<style type="text/css">
	.st0{fill:#FFFFFF;}
	.st1{fill:#ECEFF1;}
	.st2{fill:#FF5722;}
	.st3{opacity:0.54;fill:none;stroke:#000000;stroke-width:2;stroke-miterlimit:10;}
	.st4{fill:none;stroke:#FB8C00;stroke-width:4;stroke-miterlimit:10;}
	.st5{fill:none;stroke:#EF6C00;stroke-width:2;stroke-miterlimit:10;}
	.st6{fill:none;stroke:#000000;stroke-width:10;stroke-miterlimit:10;}
	.st7{fill:none;stroke:#000000;stroke-width:5;stroke-miterlimit:10;}
	.st8{opacity:0.54;}
	.st9{fill:none;stroke:#000000;stroke-width:2;stroke-miterlimit:10;}
	.st10{fill:none;stroke:#FB8C00;stroke-width:2;stroke-miterlimit:10;}
	.st11{fill:#FB8C00;}
	.st12{fill:#263238;}
	.st13{fill:none;stroke:#000000;stroke-miterlimit:10;}
	.st14{clip-path:url(#SVGID_2_);}
	.st15{fill:#37474F;}
	.st16{fill:#546E7A;}
	.st17{fill:#FFFFFF;stroke:#B0BEC5;stroke-miterlimit:10;}
	.st18{fill:none;stroke:#000000;stroke-width:4;stroke-linecap:round;stroke-linejoin:round;stroke-miterlimit:10;}
	.st19{fill:none;stroke:#000000;stroke-width:4;stroke-miterlimit:10;}
	.st20{fill:none;stroke:#000000;stroke-width:3;stroke-miterlimit:10;}
	.st21{opacity:0.12;}
</style>
<g>
	<g>
		<path d="M13.3,15h2.6v-4.7h3.4V15h3.1v2.6h-3.1v8.4c0,0.4,0,0.7,0,0.9c0,0.3,0.1,0.5,0.2,0.7c0.1,0.2,0.3,0.3,0.5,0.4
			C20.3,28,20.6,28,21,28c0.2,0,0.5,0,0.7,0c0.2,0,0.5,0,0.7-0.1v2.7c-0.4,0-0.8,0.1-1.1,0.1c-0.4,0-0.7,0.1-1.1,0.1
			c-0.9,0-1.6-0.1-2.2-0.3c-0.6-0.2-1-0.4-1.3-0.8c-0.3-0.3-0.5-0.8-0.6-1.3c-0.1-0.5-0.2-1.1-0.2-1.7v-9.2h-2.6V15z"/>
		<path d="M27.6,23.4c0,0.6,0.1,1.2,0.3,1.8c0.2,0.6,0.4,1.1,0.8,1.5c0.3,0.4,0.8,0.8,1.3,1c0.5,0.3,1.1,0.4,1.9,0.4
			c1,0,1.8-0.2,2.4-0.7c0.6-0.4,1.1-1.1,1.4-2h3.3c-0.2,0.8-0.5,1.6-0.9,2.3c-0.4,0.7-1,1.2-1.6,1.7c-0.6,0.5-1.3,0.8-2.1,1
			c-0.8,0.2-1.6,0.3-2.4,0.3c-1.2,0-2.3-0.2-3.3-0.6c-0.9-0.4-1.8-1-2.4-1.7c-0.7-0.7-1.1-1.6-1.5-2.6c-0.3-1-0.5-2.1-0.5-3.3
			c0-1.1,0.2-2.2,0.5-3.2c0.4-1,0.9-1.9,1.5-2.6c0.7-0.8,1.4-1.4,2.4-1.8c0.9-0.4,2-0.7,3.1-0.7c1.2,0,2.3,0.3,3.3,0.8
			c1,0.5,1.8,1.2,2.4,2c0.6,0.8,1.1,1.8,1.4,2.9c0.3,1.1,0.4,2.2,0.2,3.4H27.6z M35.6,21.1c0-0.5-0.2-1.1-0.3-1.6
			c-0.2-0.5-0.5-0.9-0.8-1.3c-0.3-0.4-0.7-0.7-1.2-0.9c-0.5-0.2-1-0.3-1.6-0.3c-0.6,0-1.2,0.1-1.6,0.3c-0.5,0.2-0.9,0.5-1.3,0.9
			c-0.4,0.4-0.6,0.8-0.8,1.3c-0.2,0.5-0.3,1-0.3,1.6H35.6z"/>
		<path d="M82.5,30.8c-1.3,0-2.4-0.2-3.3-0.6c-1-0.4-1.8-1-2.5-1.7c-0.7-0.7-1.2-1.6-1.5-2.6c-0.4-1-0.5-2.1-0.5-3.3
			c0-1.2,0.2-2.3,0.5-3.3c0.4-1,0.9-1.9,1.5-2.6c0.7-0.7,1.5-1.3,2.5-1.7c1-0.4,2.1-0.6,3.3-0.6c1.3,0,2.4,0.2,3.3,0.6
			c1,0.4,1.8,1,2.5,1.7c0.7,0.7,1.2,1.6,1.5,2.6c0.4,1,0.5,2.1,0.5,3.3c0,1.2-0.2,2.3-0.5,3.3c-0.4,1-0.9,1.9-1.5,2.6
			c-0.7,0.7-1.5,1.3-2.5,1.7S83.8,30.8,82.5,30.8z M82.5,28c0.8,0,1.4-0.2,2-0.5c0.6-0.3,1-0.7,1.4-1.3c0.4-0.5,0.6-1.1,0.8-1.8
			c0.2-0.7,0.3-1.3,0.3-2c0-0.7-0.1-1.3-0.3-2s-0.4-1.3-0.8-1.8c-0.4-0.5-0.8-0.9-1.4-1.3c-0.6-0.3-1.2-0.5-2-0.5
			c-0.8,0-1.4,0.2-2,0.5c-0.6,0.3-1,0.7-1.4,1.3c-0.4,0.5-0.6,1.1-0.8,1.8c-0.2,0.7-0.3,1.3-0.3,2c0,0.7,0.1,1.4,0.3,2
			c0.2,0.7,0.4,1.2,0.8,1.8c0.4,0.5,0.8,0.9,1.4,1.3C81.1,27.9,81.7,28,82.5,28z"/>
		<path d="M91.7,15.1h3.8l4,12h0.1l3.8-12h3.6l-5.6,15.6h-3.9L91.7,15.1z"/>
		<polygon points="49.7,20.4 55.7,15 51.5,15 46,21.6 46,9.3 42,12.9 42,30 46,30 46,25.3 47.7,22.8 52.1,30 56.3,30 		"/>
		<path d="M70.4,16.1c-1-0.9-2.4-1.3-4.1-1.3c-1,0-2,0.2-2.9,0.7c-0.8,0.5-1.7,1.2-2.2,2L61,17.5v-2.3l-3,3.4V30h4v-8.4
			c0-0.6-0.2-1.1,0-1.6c0.2-0.5,0.3-0.9,0.6-1.3c0.3-0.4,0.6-0.7,1.1-0.9c0.5-0.2,1-0.3,1.5-0.3c1,0,1.6,0.3,2.1,0.8
			c0.5,0.6,0.6,1.4,0.6,2.7v9h4v-9.9C72,18.4,71.4,17,70.4,16.1z"/>
	</g>
	<polygon points="75.6,0 73.3,2 118,2 118,38 2,38 2,2 68.1,2 70.3,0 0,0 0,40 120,40 120,0 	"/>
</g>
</svg>
