<?xml version="1.0" encoding="utf-8"?>
					<svg version="1.1" id="Layer_1" xmlns="http://www.w3.org/2000/svg" xmlns:xlink="http://www.w3.org/1999/xlink" x="0px" y="0px"
	 viewBox="0 0 400 400" style="enable-background:new 0 0 400 400;" xml:space="preserve">
<defs>
<style type="text/css">
    .lego-foundation{opacity:0.54;fill:none;stroke:#000000;stroke-width:2;stroke-dasharray: 1200; stroke-dashoffset: 1200;animation: dash 2s linear forwards;}
    .lego-lines{opacity:0.54;fill:none;stroke:#000000;stroke-width:2;stroke-dasharray: 1200; stroke-dashoffset: 1200;animation: dash 2s 4s linear forwards;}
    .lego-circle{opacity:0.54;fill:none;stroke:#000000;stroke-width:2; opacity:0.54;fill:none;stroke:#000000;stroke-width:2;stroke-dasharray: 1200; stroke-dashoffset: 1200;}
    .lego-circle-1{animation: dash 2s 2s linear forwards;}
    .lego-circle-2{animation: dash 3s 2.5s linear forwards;}
    .lego-circle-3{animation: dash 4s 3s linear forwards;}
    .lego-circle-4{opacity:1;fill:none;stroke:#FB8C00;stroke-width:4; animation: dash 5s 3.5s linear forwards;}
    @keyframes dash {
        to {
        stroke-dashoffset: 0;
        }
    }
</style>
</defs>
<g>
	<polygon class="lego-foundation" points="9.2,288.5 199.5,363.9 388,293.5 388,138 200.8,208.5 9.4,134.4 	"/>
	<line class="lego-lines" x1="201" y1="208.5" x2="199.7" y2="363.9"/>
	<line class="lego-lines" x1="9.5" y1="134.4" x2="63.4" y2="114.2"/>
	<line class="lego-lines" x1="121" y1="92.4" x2="156.4" y2="79.2"/>
	<line class="lego-lines" x1="388.5" y1="138" x2="337.7" y2="117.8"/>
	<line class="lego-lines" x1="275.9" y1="94.5" x2="243.8" y2="81.2"/>
	<g class="lego-circle lego-circle-1">
		<ellipse cx="200.1" cy="74.1" rx="36.3" ry="11.6"/>
		<ellipse cx="200.1" cy="74.1" rx="43.7" ry="17.2"/>
		<path d="M156,74v27c0,0,3.8,17.7,43.9,17.7s43.7-17.5,43.7-17.5l0.2-27.1c0,0-1.7,17.2-43.9,17.2S156,74,156,74z"/>
	</g>
	<g class="lego-circle lego-circle-2">
		<ellipse cx="201.1" cy="145.1" rx="36.3" ry="11.6"/>
		<ellipse cx="201.1" cy="145.1" rx="43.7" ry="17.2"/>
		<path d="M157,145v27c0,0,3.8,17.7,43.9,17.7s43.7-17.5,43.7-17.5l0.2-27.1c0,0-1.7,17.2-43.9,17.2S157,145,157,145z"
			/>
	</g>
	<g class="lego-circle lego-circle-3">
		<ellipse cx="294.1" cy="110.1" rx="36.3" ry="11.6"/>
		<ellipse cx="294.1" cy="110.1" rx="43.7" ry="17.2"/>
		<path d="M250,110v27c0,0,3.8,17.7,43.9,17.7s43.7-17.5,43.7-17.5l0.2-27.1c0,0-1.7,17.2-43.9,17.2S250,110,250,110z"
			/>
	</g>
	<g class="lego-circle lego-circle-4">
		<ellipse cx="107.1" cy="109.1" rx="36.3" ry="11.6"/>
		<ellipse cx="107.1" cy="109.1" rx="43.7" ry="17.2"/>
		<path d="M63,109v27c0,0,3.8,17.7,43.9,17.7s43.7-17.5,43.7-17.5l0.2-27.1c0,0-1.7,17.2-43.9,17.2S63,109,63,109z"/>
	</g>
</g>
</svg>