<?xml version="1.0" encoding="utf-8"?>
<svg version="1.1" id="Layer_1" xmlns="http://www.w3.org/2000/svg" xmlns:xlink="http://www.w3.org/1999/xlink" x="0px" y="0px"
	 viewBox="0 0 358.2 461.7" style="enable-background:new 0 0 358.2 461.7;" xml:space="preserve">
<defs>
<style type="text/css">
	#head{opacity:.54;fill:none;stroke:#000;stroke-width:2;stroke-miterlimit:10;stroke-dasharray: 1200; stroke-dashoffset: 1200; animation: dash 1s 1.5s linear forwards;}
    .bulb-socket{opacity:.54;fill:none;stroke:#000;stroke-width:2;stroke-dasharray: 1200; stroke-dashoffset: 1200; }
    .bs-1{animation: dash 1s 2.5s linear forwards;}
    .bs-2{animation: dash 1s 2.8s linear forwards;}
    .bs-3{animation: dash 1s 3s linear forwards;}
    .bulb{fill:none;stroke:#FB8C00;stroke-width:4;stroke-dasharray: 1200; stroke-dashoffset: 1200;animation: dash 2s 3.5s linear forwards;}
    .inner-bulb{fill:none;stroke:#EF6C00;stroke-width:2;stroke-dasharray: 1200; stroke-dashoffset: 1200;animation: dash 1s 4s linear forwards;}
    .light{fill:none;stroke:#FB8C00;stroke-width:2;animation:show-light 5s linear;}
    @keyframes dash {
        to {
        stroke-dashoffset: 0;
        }
    }
    
    @keyframes show-light{
        0%{opacity:0;}
        90%{opacity:0;}
        100%{opacity:1;}
    }
</style>
</defs>
<g>
	<path id="head" d="M88.1,460.2c0,0,24.5-74-9-85s-76.5-11-69.5-34s14.1-28.8,12.6-33.2c-1.5-4.4-3.4-9-3.4-9s-0.7-6.2,5.3-11.8
		c5.9-5.6-2.8-4.8-3.6-10.2s5.1-11.5,5.1-11.5S1.1,242.7,5.6,239.2s36-27,39-31s18.9-11,24-43s33-61,48-67.5s65.5-30,138.5,16
		s72.5,109,65,133s-53.7,56-83.4,95s-60,65.5-76.8,45.5s-9.6-50.3-9.6-50.3l1-7.3l-12.2-9.4l37,9.5"/>
	<line class="bulb-socket bs-1" x1="180.3" y1="319.4" x2="142.8" y2="308.2"/>
	<line class="bulb-socket bs-2" x1="185.6" y1="307.2" x2="142.8" y2="295.4"/>
	<line class="bulb-socket bs-3" x1="190.8" y1="296.7" x2="145.1" y2="283.7"/>
	<path class="bulb" d="M152.7,270.6c0,0,14-12.4-5.6-39.9c-12.1-32-12.4-56.5,20.8-80.4c23.2-13.6,49.2-8.1,64.3,7
		c15.1,15.1,33.4,56-8.1,89.8c-26.4,16.9-26.6,14.6-28.4,19.6c-1.8,5-4,17-4,17L152.7,270.6z"/>
	<line class="inner-bulb" x1="174.2" y1="269.5" x2="185.8" y2="232.7"/>
	<circle class="inner-bulb" cx="186.6" cy="228.7" r="6"/>
	<path class="light" d="M80,37.4l7-4.6c0.9-0.6,2.2-0.3,2.8,0.6L112,67.6c0.6,0.9,0.3,2.2-0.6,2.8l-7,4.6c-0.9,0.6-2.2,0.3-2.8-0.6
		L79.4,40.1C78.8,39.2,79.1,38,80,37.4z"/>
	<path class="light" d="M239.9,2.6l7.8,2.9c1,0.4,1.6,1.5,1.2,2.6l-17.7,47.7c-0.4,1-1.5,1.6-2.6,1.2l-7.8-2.9c-1-0.4-1.6-1.5-1.2-2.6
		l17.7-47.7C237.7,2.8,238.9,2.2,239.9,2.6z"/>
	<path class="light" d="M349.3,97l5.9,5.9c0.8,0.8,0.8,2.1,0,2.8l-25.9,25.9c-0.8,0.8-2.1,0.8-2.8,0l-5.9-5.9c-0.8-0.8-0.8-2.1,0-2.8
		L346.4,97C347.2,96.3,348.5,96.3,349.3,97z"/>
</g>
</svg>